<svg xmlns="http://www.w3.org/2000/svg" viewBox="0 0 251 35">
  <defs>
    <style>
      .a {
        isolation: isolate;
      }
    </style>
  </defs>
  <title>rpsychologist-logo</title>
  <g>
    <g>
      <g class="a">
        <path d="M1.4,9.3h5a7.48,7.48,0,0,1,3.2.5,4.42,4.42,0,0,1,2.5,4.3,4.6,4.6,0,0,1-3.2,4.6h0a2.22,2.22,0,0,1,.4.7L13,26.2H11.1L7.3,19.1H3.1v7.1H1.4Zm5.7,8.3a3.13,3.13,0,0,0,3.3-3.4,3.43,3.43,0,0,0-1.5-3,4.47,4.47,0,0,0-2.4-.4H3.1v6.8Z"/>
      </g>
      <g class="a">
        <path d="M73.4,9.3h5.8a4.91,4.91,0,0,1,5.2,5.1,5,5,0,0,1-5.2,5.2H75v6.6H73.3l.1-16.9ZM79,18.1a3.42,3.42,0,0,0,3.7-3.7A3.39,3.39,0,0,0,79,10.8H75v7.3Z"/>
        <path d="M87.5,23a6.79,6.79,0,0,0,4.4,1.8c1.8,0,3.4-1.1,3.4-2.9,0-4.2-8.4-3.2-8.4-8.4C86.9,11.1,89,9,92.2,9a6.65,6.65,0,0,1,4.5,1.6L95.8,12a5.88,5.88,0,0,0-3.7-1.4c-2.2,0-3.6,1.4-3.6,2.9,0,4,8.4,2.9,8.4,8.4,0,2.5-1.9,4.6-5.1,4.6a7.44,7.44,0,0,1-5.4-2.2Z"/>
        <path d="M104.3,18.9,98.6,9.3h1.9l3.6,6.1c.5.9,1,2,1,2h0s.5-1.1,1-2l3.6-6.1h1.9l-5.7,9.6v7.2h-1.7l.1-7.2Z"/>
        <path d="M121.3,9a8.74,8.74,0,0,1,6.1,2.2l-.9,1.2a7.94,7.94,0,0,0-5.1-1.9,6.76,6.76,0,0,0-6.8,7.1c0,4,2.8,7.3,6.8,7.3a8,8,0,0,0,5.5-2.3l1,1.2a9.06,9.06,0,0,1-6.5,2.6c-5,0-8.5-3.9-8.5-8.8A8.31,8.31,0,0,1,121.3,9Z"/>
        <path d="M131.5,9.3h1.7V17H143V9.3h1.7V26.2H143V18.5h-9.8v7.7h-1.7Z"/>
        <path d="M156.9,9a8.54,8.54,0,0,1,8.6,8.6,8.6,8.6,0,1,1-17.2,0A8.54,8.54,0,0,1,156.9,9Zm0,15.9a7.07,7.07,0,0,0,6.9-7.3,6.9,6.9,0,1,0-13.8,0C150.1,21.8,153.1,24.9,156.9,24.9Z"/>
        <path d="M169.3,9.3H171V24.7h7.8v1.5h-9.5Z"/>
        <path d="M188.4,9a8.54,8.54,0,0,1,8.6,8.6A8.6,8.6,0,1,1,188.4,9Zm0,15.9a7.07,7.07,0,0,0,6.9-7.3,6.9,6.9,0,1,0-13.8,0C181.6,21.8,184.6,24.9,188.4,24.9Z"/>
        <path d="M208.1,9a9.07,9.07,0,0,1,6,2l-.9,1.2a8.31,8.31,0,0,0-5-1.7c-4.1,0-6.8,3.1-6.8,7.2s2.9,7.2,6.7,7.2a7.29,7.29,0,0,0,5.3-2.5V19.5h-2.9V18H215v8.1h-1.5v-2h0a7.41,7.41,0,0,1-5.5,2.3,8.38,8.38,0,0,1-8.3-8.7A8.39,8.39,0,0,1,208.1,9Z"/>
        <path d="M219,9.3h1.7V26.2H219Z"/>
        <path d="M225.2,23a6.79,6.79,0,0,0,4.4,1.8c1.8,0,3.4-1.1,3.4-2.9,0-4.2-8.4-3.2-8.4-8.4,0-2.4,2.1-4.5,5.3-4.5a6.65,6.65,0,0,1,4.5,1.6l-.8,1.4a5.88,5.88,0,0,0-3.7-1.4c-2.2,0-3.6,1.4-3.6,2.9,0,4,8.4,2.9,8.4,8.4,0,2.5-1.9,4.6-5.1,4.6a7.44,7.44,0,0,1-5.4-2.2Z"/>
        <path d="M242.2,10.8h-6.1V9.3h13.8v1.5h-6V26.2h-1.7Z"/>
      </g>
    </g>
    <path d="M41.5,1A16.5,16.5,0,1,0,58,17.5,16.52,16.52,0,0,0,41.5,1Zm-.4,13-6.5,3.2,6.5,3.3V22l-9.5-4.7,9.5-4.8ZM50,18.3H43.2V16.9H50Z"/>
  </g>
</svg>
